<svg width="512" height="512" viewBox="0 0 512 512" fill="none" xmlns="http://www.w3.org/2000/svg">
  <rect width="512" height="512" rx="128" fill="#F4F7FA"/>
  <circle cx="256" cy="256" r="206" fill="#DCEAF7"/>
  <circle cx="256" cy="256" r="170" fill="#10324A"/>
  <path d="M256 104L368 152V258C368 327 319 381 256 416C193 381 144 327 144 258V152L256 104Z" fill="#1F5C8D"/>
  <rect x="184" y="196" width="144" height="96" rx="10" fill="white"/>
  <line x1="221" y1="196" x2="221" y2="292" stroke="#10324A" stroke-width="10"/>
  <line x1="291" y1="196" x2="291" y2="292" stroke="#10324A" stroke-width="10"/>
  <line x1="184" y1="244" x2="328" y2="244" stroke="#10324A" stroke-width="10"/>
  <path d="M212 325C212 304.013 229.013 287 250 287H262C282.987 287 300 304.013 300 325V327C300 347.987 282.987 365 262 365H250C229.013 365 212 347.987 212 327V325Z" fill="#10324A"/>
  <path d="M220 326C220 311.641 231.641 300 246 300H266C280.359 300 292 311.641 292 326C292 340.359 280.359 352 266 352H246C231.641 352 220 340.359 220 326Z" fill="white"/>
  <path d="M231 325C231 314.507 239.507 306 250 306H262C272.493 306 281 314.507 281 325C281 335.493 272.493 344 262 344H250C239.507 344 231 335.493 231 325Z" fill="#1F5C8D"/>
  <path d="M271 314H247C240.925 314 236 318.925 236 325C236 331.075 240.925 336 247 336H255C261.075 336 266 340.925 266 347" stroke="white" stroke-width="10" stroke-linecap="round"/>
</svg>
